<?xml version="1.0" encoding="UTF-8"?><svg id="Layer_1" xmlns="http://www.w3.org/2000/svg" viewBox="0 0 2247.34 500"><defs><style>.cls-1{fill:#fff;}</style></defs><path class="cls-1" d="M1065.75,284.26v-12.01h-75.87c-32.21,0-49.68,12.01-49.68,34.39,0,19.65,12.55,38.21,49.68,38.21,46.94,0,75.87-25.66,75.87-60.59m0,30.02h-.55c-11.46,46.95-45.85,70.42-90.07,70.42-49.68,0-81.88-24.02-81.88-72.06,0-44.76,28.39-78.06,90.07-78.06h82.43v-13.65c0-39.85-15.28-61.69-55.68-61.69-36.57,0-56.77,16.92-63.86,58.95l-45.31-6.55c8.74-59.5,43.67-92.8,110.81-92.8,70.96,0,101.53,36.02,101.53,101.53v158.84h-47.49v-64.96Z"/><path class="cls-1" d="M1350.14,250.97c0-57.32-24.02-90.07-75.33-90.07-48.03,0-78.6,31.66-78.6,88.43v3.82c0,54.59,30.57,90.07,78.6,90.07s75.33-33.84,75.33-92.25m-57.32,134.83c-56.22,0-85.7-31.12-96.07-82.43h-.55v151.2h-47.49V124.32h47.49v74.78h1.09c10.92-50.76,40.94-81.33,94.98-81.33,68.78,0,104.81,51.32,104.81,133.19s-38.21,134.83-104.26,134.83"/><path class="cls-1" d="M1434.19,165.26h-37.66v-40.94h37.66V53.91h47.49V124.32h81.33v40.94h-81.33v131.56c0,28.39,10.92,43.12,39.3,43.12,13.65,0,25.11-2.73,38.76-6.55l6.01,43.67c-17.47,5.46-31.12,8.73-54.59,8.73-53.5,0-76.97-34.93-76.97-82.43V165.26Z"/><path class="cls-1" d="M1775.9,310.46h-.55c-10.92,51.86-44.22,75.33-88.98,75.33-66.05,0-88.97-43.66-88.97-98.25V124.32h47.49v151.2c0,34.94,15.28,66.6,61.14,66.6s69.87-24.02,69.87-66.6V124.32h47.49v254.92h-47.49v-68.78Z"/><path class="cls-1" d="M1862.69,379.24V124.32h47.49v78.61h1.09c10.37-59.5,34.39-78.61,75.33-78.61h15.83v52.4h-22.92c-48.04,0-69.32,18.56-69.32,67.69v134.83h-47.49Z"/><path class="cls-1" d="M2048.83,229.68h152.85c-3.28-45.31-26.75-70.96-73.69-70.96-43.67,0-72.6,23.47-79.15,70.96m-48.58,24.02c0-85.16,51.86-135.92,129.37-135.92s116.82,48.58,116.82,118.45c0,8.19,0,18.56-1.09,30.57h-197.61c4.91,49.68,33.85,76.97,82.43,76.97,45.86,0,63.87-23.48,72.61-53.5l42.03,12.56c-13.11,50.22-49.68,82.43-114.64,82.43-78.6,0-129.91-48.04-129.91-131.56"/><path class="cls-1" d="M750.79,342.13c-50.76,0-82.97-33.3-82.97-90.07,0-60.59,33.3-90.61,81.33-90.61,41.17,0,63.4,21.25,73.92,56.09l47.22-4.65c-12.6-60.27-48.66-95.11-120.59-95.11-75.87,0-130.46,49.67-130.46,133.74s52.41,134.28,132.1,134.28c72.06,0,109.17-38.76,120.63-103.17l-45.31-9.28c-9.82,38.76-26.2,68.78-75.87,68.78"/><path class="cls-1" d="M325.77,307.63v-115.25c0-9.47-7.68-17.15-17.15-17.15h-115.25c-9.47,0-17.15,7.68-17.15,17.15v115.25c0,9.47,7.68,17.15,17.15,17.15h115.25c9.47,0,17.15-7.68,17.15-17.15m81.96,17.58l-81.52,81.52h-69.08l-76.32-76.32c-3.22-3.22-7.58-5.02-12.13-5.02H94.27V174.79l81.52-81.52h69.08l76.31,76.31c3.22,3.22,7.58,5.03,12.13,5.03h74.42v150.59Zm92.27,49.23V125.56c0-68.79-55.76-124.56-124.55-124.56H126.55C57.76,1,2,56.77,2,125.56v248.88c0,68.79,55.76,124.56,124.55,124.56h248.89c68.79,0,124.55-55.77,124.55-124.56"/></svg>